<mxfile host="app.diagrams.net" modified="2023-03-10T18:58:10.638Z" agent="5.0 (Windows NT 10.0; Win64; x64) AppleWebKit/537.36 (KHTML, like Gecko) Chrome/110.0.0.0 Safari/537.36" etag="_b190N3_aVGc_B_vC5xz" version="21.0.6" type="github">
  <diagram name="PÃ¡gina-1" id="5z_cDl_zp5FbUv-WjsRG">
    <mxGraphModel dx="1352" dy="764" grid="1" gridSize="10" guides="1" tooltips="1" connect="1" arrows="1" fold="1" page="1" pageScale="1" pageWidth="827" pageHeight="1169" math="0" shadow="0">
      <root>
        <mxCell id="0" />
        <mxCell id="1" parent="0" />
        <mxCell id="xSdFSUrJO-_Y9EVjBCv5-22" value="AWS Cloud" style="points=[[0,0],[0.25,0],[0.5,0],[0.75,0],[1,0],[1,0.25],[1,0.5],[1,0.75],[1,1],[0.75,1],[0.5,1],[0.25,1],[0,1],[0,0.75],[0,0.5],[0,0.25]];outlineConnect=0;gradientColor=none;html=1;whiteSpace=wrap;fontSize=12;fontStyle=0;container=1;pointerEvents=0;collapsible=0;recursiveResize=0;shape=mxgraph.aws4.group;grIcon=mxgraph.aws4.group_aws_cloud_alt;strokeColor=#232F3E;fillColor=none;verticalAlign=top;align=left;spacingLeft=30;fontColor=#232F3E;dashed=0;" parent="1" vertex="1">
          <mxGeometry x="40" y="50" width="760" height="760" as="geometry" />
        </mxCell>
        <mxCell id="xSdFSUrJO-_Y9EVjBCv5-23" value="Region: Virginia" style="points=[[0,0],[0.25,0],[0.5,0],[0.75,0],[1,0],[1,0.25],[1,0.5],[1,0.75],[1,1],[0.75,1],[0.5,1],[0.25,1],[0,1],[0,0.75],[0,0.5],[0,0.25]];outlineConnect=0;gradientColor=none;html=1;whiteSpace=wrap;fontSize=12;fontStyle=0;container=1;pointerEvents=0;collapsible=0;recursiveResize=0;shape=mxgraph.aws4.group;grIcon=mxgraph.aws4.group_region;strokeColor=#147EBA;fillColor=none;verticalAlign=top;align=left;spacingLeft=30;fontColor=#0e55e1;dashed=1;" parent="xSdFSUrJO-_Y9EVjBCv5-22" vertex="1">
          <mxGeometry x="40" y="40" width="680" height="680" as="geometry" />
        </mxCell>
        <mxCell id="xSdFSUrJO-_Y9EVjBCv5-24" value="Availability Zone 1a" style="fillColor=none;strokeColor=#147EBA;dashed=1;verticalAlign=top;fontStyle=0;fontColor=#147EBA;whiteSpace=wrap;html=1;movable=0;resizable=0;rotatable=0;deletable=0;editable=0;locked=1;connectable=0;" parent="xSdFSUrJO-_Y9EVjBCv5-23" vertex="1">
          <mxGeometry x="30" y="40" width="270" height="620" as="geometry" />
        </mxCell>
        <mxCell id="xSdFSUrJO-_Y9EVjBCv5-29" value="VPC" style="points=[[0,0],[0.25,0],[0.5,0],[0.75,0],[1,0],[1,0.25],[1,0.5],[1,0.75],[1,1],[0.75,1],[0.5,1],[0.25,1],[0,1],[0,0.75],[0,0.5],[0,0.25]];outlineConnect=0;gradientColor=none;html=1;whiteSpace=wrap;fontSize=12;fontStyle=0;container=1;pointerEvents=0;collapsible=0;recursiveResize=0;shape=mxgraph.aws4.group;grIcon=mxgraph.aws4.group_vpc;strokeColor=#248814;fillColor=none;verticalAlign=top;align=left;spacingLeft=30;fontColor=#AAB7B8;dashed=0;" parent="xSdFSUrJO-_Y9EVjBCv5-23" vertex="1">
          <mxGeometry x="40" y="110" width="570" height="530" as="geometry" />
        </mxCell>
        <mxCell id="xSdFSUrJO-_Y9EVjBCv5-31" value="Public subnet" style="points=[[0,0],[0.25,0],[0.5,0],[0.75,0],[1,0],[1,0.25],[1,0.5],[1,0.75],[1,1],[0.75,1],[0.5,1],[0.25,1],[0,1],[0,0.75],[0,0.5],[0,0.25]];outlineConnect=0;gradientColor=none;html=1;whiteSpace=wrap;fontSize=12;fontStyle=0;container=1;pointerEvents=0;collapsible=0;recursiveResize=0;shape=mxgraph.aws4.group;grIcon=mxgraph.aws4.group_security_group;grStroke=0;strokeColor=#248814;fillColor=#E9F3E6;verticalAlign=top;align=left;spacingLeft=30;fontColor=#248814;dashed=0;" parent="xSdFSUrJO-_Y9EVjBCv5-29" vertex="1">
          <mxGeometry x="20" y="40" width="230" height="210" as="geometry" />
        </mxCell>
        <mxCell id="xSdFSUrJO-_Y9EVjBCv5-33" value="Public subnet" style="points=[[0,0],[0.25,0],[0.5,0],[0.75,0],[1,0],[1,0.25],[1,0.5],[1,0.75],[1,1],[0.75,1],[0.5,1],[0.25,1],[0,1],[0,0.75],[0,0.5],[0,0.25]];outlineConnect=0;gradientColor=none;html=1;whiteSpace=wrap;fontSize=12;fontStyle=0;container=1;pointerEvents=0;collapsible=0;recursiveResize=0;shape=mxgraph.aws4.group;grIcon=mxgraph.aws4.group_security_group;grStroke=0;strokeColor=#248814;fillColor=#E9F3E6;verticalAlign=top;align=left;spacingLeft=30;fontColor=#248814;dashed=0;" parent="xSdFSUrJO-_Y9EVjBCv5-29" vertex="1">
          <mxGeometry x="310" y="40" width="240" height="210" as="geometry" />
        </mxCell>
        <mxCell id="xSdFSUrJO-_Y9EVjBCv5-36" value="Auto Scaling group" style="points=[[0,0],[0.25,0],[0.5,0],[0.75,0],[1,0],[1,0.25],[1,0.5],[1,0.75],[1,1],[0.75,1],[0.5,1],[0.25,1],[0,1],[0,0.75],[0,0.5],[0,0.25]];outlineConnect=0;gradientColor=none;html=1;whiteSpace=wrap;fontSize=12;fontStyle=0;container=1;pointerEvents=0;collapsible=0;recursiveResize=0;shape=mxgraph.aws4.groupCenter;grIcon=mxgraph.aws4.group_auto_scaling_group;grStroke=1;strokeColor=#D86613;fillColor=none;verticalAlign=top;align=center;fontColor=#D86613;dashed=1;spacingTop=25;" parent="xSdFSUrJO-_Y9EVjBCv5-29" vertex="1">
          <mxGeometry x="10" y="100" width="560" height="140" as="geometry" />
        </mxCell>
        <mxCell id="xSdFSUrJO-_Y9EVjBCv5-35" value="" style="sketch=0;points=[[0,0,0],[0.25,0,0],[0.5,0,0],[0.75,0,0],[1,0,0],[0,1,0],[0.25,1,0],[0.5,1,0],[0.75,1,0],[1,1,0],[0,0.25,0],[0,0.5,0],[0,0.75,0],[1,0.25,0],[1,0.5,0],[1,0.75,0]];outlineConnect=0;fontColor=#232F3E;gradientColor=#F78E04;gradientDirection=north;fillColor=#D05C17;strokeColor=#ffffff;dashed=0;verticalLabelPosition=bottom;verticalAlign=top;align=center;html=1;fontSize=12;fontStyle=0;aspect=fixed;shape=mxgraph.aws4.resourceIcon;resIcon=mxgraph.aws4.ec2;" parent="xSdFSUrJO-_Y9EVjBCv5-36" vertex="1">
          <mxGeometry x="350" y="20" width="60" height="60" as="geometry" />
        </mxCell>
        <mxCell id="xSdFSUrJO-_Y9EVjBCv5-34" value="" style="sketch=0;points=[[0,0,0],[0.25,0,0],[0.5,0,0],[0.75,0,0],[1,0,0],[0,1,0],[0.25,1,0],[0.5,1,0],[0.75,1,0],[1,1,0],[0,0.25,0],[0,0.5,0],[0,0.75,0],[1,0.25,0],[1,0.5,0],[1,0.75,0]];outlineConnect=0;fontColor=#232F3E;gradientColor=#F78E04;gradientDirection=north;fillColor=#D05C17;strokeColor=#ffffff;dashed=0;verticalLabelPosition=bottom;verticalAlign=top;align=center;html=1;fontSize=12;fontStyle=0;aspect=fixed;shape=mxgraph.aws4.resourceIcon;resIcon=mxgraph.aws4.ec2;" parent="xSdFSUrJO-_Y9EVjBCv5-36" vertex="1">
          <mxGeometry x="80" y="20" width="60" height="60" as="geometry" />
        </mxCell>
        <mxCell id="xSdFSUrJO-_Y9EVjBCv5-38" value="Security group" style="fillColor=none;strokeColor=#DD3522;verticalAlign=top;fontStyle=0;fontColor=#DD3522;whiteSpace=wrap;html=1;" parent="xSdFSUrJO-_Y9EVjBCv5-36" vertex="1">
          <mxGeometry x="60" width="100" height="90" as="geometry" />
        </mxCell>
        <mxCell id="xSdFSUrJO-_Y9EVjBCv5-40" value="Private subnet" style="points=[[0,0],[0.25,0],[0.5,0],[0.75,0],[1,0],[1,0.25],[1,0.5],[1,0.75],[1,1],[0.75,1],[0.5,1],[0.25,1],[0,1],[0,0.75],[0,0.5],[0,0.25]];outlineConnect=0;gradientColor=none;html=1;whiteSpace=wrap;fontSize=12;fontStyle=0;container=1;pointerEvents=0;collapsible=0;recursiveResize=0;shape=mxgraph.aws4.group;grIcon=mxgraph.aws4.group_security_group;grStroke=0;strokeColor=#147EBA;fillColor=#E6F2F8;verticalAlign=top;align=left;spacingLeft=30;fontColor=#147EBA;dashed=0;" parent="xSdFSUrJO-_Y9EVjBCv5-29" vertex="1">
          <mxGeometry x="20" y="270" width="220" height="230" as="geometry" />
        </mxCell>
        <mxCell id="xSdFSUrJO-_Y9EVjBCv5-43" value="" style="sketch=0;outlineConnect=0;fontColor=#232F3E;gradientColor=none;fillColor=#2E27AD;strokeColor=none;dashed=0;verticalLabelPosition=bottom;verticalAlign=top;align=center;html=1;fontSize=12;fontStyle=0;aspect=fixed;pointerEvents=1;shape=mxgraph.aws4.aurora_instance;" parent="xSdFSUrJO-_Y9EVjBCv5-40" vertex="1">
          <mxGeometry x="66" y="76" width="78" height="78" as="geometry" />
        </mxCell>
        <mxCell id="xSdFSUrJO-_Y9EVjBCv5-52" value="Security group" style="fillColor=none;strokeColor=#DD3522;verticalAlign=top;fontStyle=0;fontColor=#DD3522;whiteSpace=wrap;html=1;" parent="xSdFSUrJO-_Y9EVjBCv5-40" vertex="1">
          <mxGeometry x="55" y="54" width="115" height="106" as="geometry" />
        </mxCell>
        <mxCell id="xSdFSUrJO-_Y9EVjBCv5-45" value="" style="sketch=0;outlineConnect=0;fontColor=#232F3E;gradientColor=none;fillColor=#2E27AD;strokeColor=none;dashed=0;verticalLabelPosition=bottom;verticalAlign=top;align=center;html=1;fontSize=12;fontStyle=0;aspect=fixed;pointerEvents=1;shape=mxgraph.aws4.rds_multi_az;" parent="xSdFSUrJO-_Y9EVjBCv5-29" vertex="1">
          <mxGeometry x="240.5" y="356" width="78" height="58" as="geometry" />
        </mxCell>
        <mxCell id="xSdFSUrJO-_Y9EVjBCv5-62" value="" style="sketch=0;outlineConnect=0;fontColor=#232F3E;gradientColor=none;fillColor=#4D27AA;strokeColor=none;dashed=0;verticalLabelPosition=bottom;verticalAlign=top;align=center;html=1;fontSize=12;fontStyle=0;aspect=fixed;pointerEvents=1;shape=mxgraph.aws4.application_load_balancer;" parent="xSdFSUrJO-_Y9EVjBCv5-29" vertex="1">
          <mxGeometry x="259.5" y="10" width="40" height="40" as="geometry" />
        </mxCell>
        <mxCell id="xSdFSUrJO-_Y9EVjBCv5-65" value="" style="edgeStyle=orthogonalEdgeStyle;html=1;endArrow=none;elbow=vertical;startArrow=block;startFill=1;strokeColor=#545B64;rounded=0;" parent="xSdFSUrJO-_Y9EVjBCv5-29" edge="1">
          <mxGeometry width="100" relative="1" as="geometry">
            <mxPoint x="284.5" y="100" as="sourcePoint" />
            <mxPoint x="284.5" y="40" as="targetPoint" />
            <Array as="points">
              <mxPoint x="284.5" y="100" />
            </Array>
          </mxGeometry>
        </mxCell>
        <mxCell id="xSdFSUrJO-_Y9EVjBCv5-28" value="Availability Zone 1b" style="fillColor=none;strokeColor=#147EBA;dashed=1;verticalAlign=top;fontStyle=0;fontColor=#147EBA;whiteSpace=wrap;html=1;movable=0;resizable=0;rotatable=0;deletable=0;editable=0;locked=1;connectable=0;" parent="xSdFSUrJO-_Y9EVjBCv5-23" vertex="1">
          <mxGeometry x="340" y="40" width="270" height="620" as="geometry" />
        </mxCell>
        <mxCell id="xSdFSUrJO-_Y9EVjBCv5-41" value="Private subnet" style="points=[[0,0],[0.25,0],[0.5,0],[0.75,0],[1,0],[1,0.25],[1,0.5],[1,0.75],[1,1],[0.75,1],[0.5,1],[0.25,1],[0,1],[0,0.75],[0,0.5],[0,0.25]];outlineConnect=0;gradientColor=none;html=1;whiteSpace=wrap;fontSize=12;fontStyle=0;container=1;pointerEvents=0;collapsible=0;recursiveResize=0;shape=mxgraph.aws4.group;grIcon=mxgraph.aws4.group_security_group;grStroke=0;strokeColor=#147EBA;fillColor=#E6F2F8;verticalAlign=top;align=left;spacingLeft=30;fontColor=#147EBA;dashed=0;" parent="xSdFSUrJO-_Y9EVjBCv5-23" vertex="1">
          <mxGeometry x="360" y="380" width="220" height="240" as="geometry" />
        </mxCell>
        <mxCell id="xSdFSUrJO-_Y9EVjBCv5-44" value="" style="sketch=0;outlineConnect=0;fontColor=#232F3E;gradientColor=none;fillColor=#2E27AD;strokeColor=none;dashed=0;verticalLabelPosition=bottom;verticalAlign=top;align=center;html=1;fontSize=12;fontStyle=0;aspect=fixed;pointerEvents=1;shape=mxgraph.aws4.aurora_instance;" parent="xSdFSUrJO-_Y9EVjBCv5-23" vertex="1">
          <mxGeometry x="420" y="456" width="78" height="78" as="geometry" />
        </mxCell>
        <mxCell id="xSdFSUrJO-_Y9EVjBCv5-47" value="" style="sketch=0;outlineConnect=0;fontColor=#232F3E;gradientColor=none;fillColor=#4D27AA;strokeColor=none;dashed=0;verticalLabelPosition=bottom;verticalAlign=top;align=center;html=1;fontSize=12;fontStyle=0;aspect=fixed;pointerEvents=1;shape=mxgraph.aws4.route_table;" parent="xSdFSUrJO-_Y9EVjBCv5-23" vertex="1">
          <mxGeometry x="70" y="550" width="51.32" height="50" as="geometry" />
        </mxCell>
        <mxCell id="xSdFSUrJO-_Y9EVjBCv5-51" value="Security group" style="fillColor=none;strokeColor=#DD3522;verticalAlign=top;fontStyle=0;fontColor=#DD3522;whiteSpace=wrap;html=1;" parent="xSdFSUrJO-_Y9EVjBCv5-23" vertex="1">
          <mxGeometry x="380" y="210" width="100" height="90" as="geometry" />
        </mxCell>
        <mxCell id="xSdFSUrJO-_Y9EVjBCv5-53" value="Security group" style="fillColor=none;strokeColor=#DD3522;verticalAlign=top;fontStyle=0;fontColor=#DD3522;whiteSpace=wrap;html=1;" parent="xSdFSUrJO-_Y9EVjBCv5-23" vertex="1">
          <mxGeometry x="398" y="430" width="122" height="110" as="geometry" />
        </mxCell>
        <mxCell id="xSdFSUrJO-_Y9EVjBCv5-54" value="" style="sketch=0;outlineConnect=0;fontColor=#232F3E;gradientColor=none;fillColor=#4D27AA;strokeColor=none;dashed=0;verticalLabelPosition=bottom;verticalAlign=top;align=center;html=1;fontSize=12;fontStyle=0;aspect=fixed;pointerEvents=1;shape=mxgraph.aws4.route_table;" parent="xSdFSUrJO-_Y9EVjBCv5-23" vertex="1">
          <mxGeometry x="59.74" y="295" width="51.32" height="50" as="geometry" />
        </mxCell>
        <mxCell id="xSdFSUrJO-_Y9EVjBCv5-56" value="" style="sketch=0;outlineConnect=0;fontColor=#232F3E;gradientColor=none;fillColor=#4D27AA;strokeColor=none;dashed=0;verticalLabelPosition=bottom;verticalAlign=top;align=center;html=1;fontSize=12;fontStyle=0;aspect=fixed;pointerEvents=1;shape=mxgraph.aws4.route_table;" parent="xSdFSUrJO-_Y9EVjBCv5-23" vertex="1">
          <mxGeometry x="518.42" y="290" width="61.58" height="60" as="geometry" />
        </mxCell>
        <mxCell id="xSdFSUrJO-_Y9EVjBCv5-57" value="" style="sketch=0;outlineConnect=0;fontColor=#232F3E;gradientColor=none;fillColor=#4D27AA;strokeColor=none;dashed=0;verticalLabelPosition=bottom;verticalAlign=top;align=center;html=1;fontSize=12;fontStyle=0;aspect=fixed;pointerEvents=1;shape=mxgraph.aws4.route_table;" parent="xSdFSUrJO-_Y9EVjBCv5-23" vertex="1">
          <mxGeometry x="520.48" y="564" width="57.47" height="56" as="geometry" />
        </mxCell>
        <mxCell id="xSdFSUrJO-_Y9EVjBCv5-58" value="" style="sketch=0;outlineConnect=0;fontColor=#232F3E;gradientColor=none;fillColor=#4D27AA;strokeColor=none;dashed=0;verticalLabelPosition=bottom;verticalAlign=top;align=center;html=1;fontSize=12;fontStyle=0;aspect=fixed;pointerEvents=1;shape=mxgraph.aws4.network_access_control_list;" parent="xSdFSUrJO-_Y9EVjBCv5-23" vertex="1">
          <mxGeometry x="250" y="150" width="40" height="40" as="geometry" />
        </mxCell>
        <mxCell id="xSdFSUrJO-_Y9EVjBCv5-59" value="" style="sketch=0;outlineConnect=0;fontColor=#232F3E;gradientColor=none;fillColor=#4D27AA;strokeColor=none;dashed=0;verticalLabelPosition=bottom;verticalAlign=top;align=center;html=1;fontSize=12;fontStyle=0;aspect=fixed;pointerEvents=1;shape=mxgraph.aws4.network_access_control_list;" parent="xSdFSUrJO-_Y9EVjBCv5-23" vertex="1">
          <mxGeometry x="550" y="150" width="40" height="40" as="geometry" />
        </mxCell>
        <mxCell id="xSdFSUrJO-_Y9EVjBCv5-60" value="" style="sketch=0;outlineConnect=0;fontColor=#232F3E;gradientColor=none;fillColor=#4D27AA;strokeColor=none;dashed=0;verticalLabelPosition=bottom;verticalAlign=top;align=center;html=1;fontSize=12;fontStyle=0;aspect=fixed;pointerEvents=1;shape=mxgraph.aws4.network_access_control_list;" parent="xSdFSUrJO-_Y9EVjBCv5-23" vertex="1">
          <mxGeometry x="240" y="380" width="40" height="40" as="geometry" />
        </mxCell>
        <mxCell id="xSdFSUrJO-_Y9EVjBCv5-61" value="" style="sketch=0;outlineConnect=0;fontColor=#232F3E;gradientColor=none;fillColor=#4D27AA;strokeColor=none;dashed=0;verticalLabelPosition=bottom;verticalAlign=top;align=center;html=1;fontSize=12;fontStyle=0;aspect=fixed;pointerEvents=1;shape=mxgraph.aws4.network_access_control_list;" parent="xSdFSUrJO-_Y9EVjBCv5-23" vertex="1">
          <mxGeometry x="540" y="380" width="40" height="40" as="geometry" />
        </mxCell>
        <mxCell id="xSdFSUrJO-_Y9EVjBCv5-46" value="" style="sketch=0;outlineConnect=0;fontColor=#232F3E;gradientColor=none;fillColor=#4D27AA;strokeColor=none;dashed=0;verticalLabelPosition=bottom;verticalAlign=top;align=center;html=1;fontSize=12;fontStyle=0;aspect=fixed;pointerEvents=1;shape=mxgraph.aws4.internet_gateway;" parent="xSdFSUrJO-_Y9EVjBCv5-23" vertex="1">
          <mxGeometry x="300" y="70" width="40" height="40" as="geometry" />
        </mxCell>
      </root>
    </mxGraphModel>
  </diagram>
</mxfile>
